# Blender v3.2.0 OBJ File: 'HexaLaby.blend'
# www.blender.org
mtllib OctoWall2.mtl
o WallSouth.003_Cylinder.039
v -0.697771 -1.045789 -1.999999
v -0.697771 1.045789 -1.999999
v 0.697770 -1.045789 -2.000000
v 0.697770 1.045789 -2.000000
v -0.790161 -1.045789 -1.907611
v 0.790160 -1.045789 -1.907612
v 0.790160 1.045789 -1.907612
v -0.790161 1.045789 -1.907611
vt 1.000000 0.500000
vt 1.000000 1.000000
vt 0.875000 1.000000
vt 0.875000 0.500000
vt 1.000000 0.500000
vt 0.875000 0.500000
vt 0.875000 1.000000
vt 1.000000 1.000000
vn -0.0000 0.0000 -1.0000
vn 0.0000 0.0000 1.0000
vn 0.0000 -1.0000 -0.0000
vn 0.0000 1.0000 0.0000
usemtl None
s off
f 1/1/1 2/2/1 4/3/1 3/4/1
f 5/5/2 6/6/2 7/7/2 8/8/2
f 3/4/3 6/6/3 5/5/3 1/1/3
f 2/2/4 8/8/4 7/7/4 4/3/4
