# Blender v3.2.0 OBJ File: 'HexaLaby.blend'
# www.blender.org
mtllib OctoGround.mtl
o Ground_Cylinder.005
v -0.828427 -1.263369 -2.000000
v -0.828427 -1.054211 -2.000000
v 0.828427 -1.263369 -2.000000
v 0.828427 -1.054211 -2.000000
v 2.000000 -1.263369 -0.828427
v 2.000000 -1.054211 -0.828427
v 2.000000 -1.263369 0.828427
v 2.000000 -1.054211 0.828427
v 0.828427 -1.263369 2.000000
v 0.828427 -1.054211 2.000000
v -0.828427 -1.263369 2.000000
v -0.828427 -1.054211 2.000000
v -2.000000 -1.263369 0.828427
v -2.000000 -1.054211 0.828427
v -2.000000 -1.263369 -0.828427
v -2.000000 -1.054211 -0.828427
vt 1.000000 0.500000
vt 1.000000 1.000000
vt 0.875000 1.000000
vt 0.875000 0.500000
vt 0.750000 1.000000
vt 0.750000 0.500000
vt 0.625000 1.000000
vt 0.625000 0.500000
vt 0.500000 1.000000
vt 0.500000 0.500000
vt 0.375000 1.000000
vt 0.375000 0.500000
vt 0.250000 1.000000
vt 0.250000 0.500000
vt 0.125000 1.000000
vt 0.125000 0.500000
vt 0.000000 1.000000
vt 0.000000 0.500000
vn 0.0000 0.0000 -1.0000
vn 0.7071 0.0000 -0.7071
vn 1.0000 0.0000 0.0000
vn 0.7071 0.0000 0.7071
vn 0.0000 0.0000 1.0000
vn -0.7071 0.0000 0.7071
vn -1.0000 0.0000 0.0000
vn -0.7071 0.0000 -0.7071
vn 0.0000 -1.0000 0.0000
vn 0.0000 1.0000 0.0000
usemtl None
s off
f 1/1/1 2/2/1 4/3/1 3/4/1
f 3/4/2 4/3/2 6/5/2 5/6/2
f 5/6/3 6/5/3 8/7/3 7/8/3
f 7/8/4 8/7/4 10/9/4 9/10/4
f 9/10/5 10/9/5 12/11/5 11/12/5
f 11/12/6 12/11/6 14/13/6 13/14/6
f 13/14/7 14/13/7 16/15/7 15/16/7
f 15/16/8 16/15/8 2/17/8 1/18/8
f 1/18/9 3/4/9 5/6/9 7/8/9 9/10/9 11/12/9 13/14/9 15/16/9
f 4/3/10 2/17/10 16/15/10 14/13/10 12/11/10 10/9/10 8/7/10 6/5/10
