# Blender v3.2.0 OBJ File: 'HexaLaby.blend'
# www.blender.org
mtllib HexaCol2.mtl
o Hexagon.002_Cylinder.003
v -0.866025 2.200000 -0.500000
v -0.866025 0.000000 -0.500000
v -0.779422 2.200000 -0.550000
v -0.779422 -0.000000 -0.550000
v -0.779422 2.200000 -0.450000
v -0.779422 0.000000 -0.450000
vt 0.166667 1.000000
vt 0.166667 1.000000
vt 0.000000 0.000000
vt 0.000000 0.000000
vt 0.166667 0.500000
vt 0.166667 0.500000
vn -0.0000 1.0000 0.0000
vn -0.0000 -1.0000 0.0000
vn 1.0000 -0.0000 0.0000
vn -0.5000 0.0000 -0.8660
vn -0.5000 -0.0000 0.8660
usemtl None.003
s off
f 1/1/1 5/2/1 3/3/1
f 4/4/2 6/5/2 2/6/2
f 4/4/3 3/3/3 5/2/3 6/5/3
f 2/6/4 1/1/4 3/3/4 4/4/4
f 6/5/5 5/2/5 1/1/5 2/6/5
