# Blender v3.2.0 OBJ File: 'HexaLaby.blend'
# www.blender.org
mtllib HMR_Bevel.mtl
o Logic1.002_Cube.084
v -1.013288 -1.013288 1.900000
v -1.900000 -1.013288 1.013288
v -1.013288 1.013288 1.900000
v -1.900000 1.013288 1.013288
v -1.192724 -1.013288 1.900000
v -1.900000 -1.013288 1.192725
v -1.330707 -1.013288 1.886410
v -1.463387 -1.013288 1.846162
v -1.585666 -1.013288 1.780802
v -1.692844 -1.013288 1.692844
v -1.780802 -1.013288 1.585666
v -1.846162 -1.013288 1.463387
v -1.886410 -1.013288 1.330707
v -1.900000 1.013288 1.192724
v -1.192725 1.013288 1.900000
v -1.886410 1.013288 1.330707
v -1.846162 1.013288 1.463387
v -1.780802 1.013288 1.585666
v -1.692844 1.013288 1.692844
v -1.585666 1.013288 1.780802
v -1.463387 1.013288 1.846162
v -1.330707 1.013288 1.886410
vt 0.433336 0.941664
vt 0.433336 0.941664
vt 0.566664 0.941664
vt 0.566664 0.941664
vt 0.566664 0.058336
vt 0.566664 0.058336
vt 0.433336 0.058336
vt 0.433336 0.058336
vt 0.566664 0.058336
vt 0.433336 0.058336
vt 0.566664 0.058336
vt 0.433336 0.058336
vt 0.566664 0.058336
vt 0.433336 0.058336
vt 0.566664 0.941664
vt 0.566664 0.941664
vt 0.433336 0.941664
vt 0.433336 0.941664
vt 0.566664 0.941664
vt 0.433336 0.941664
vt 0.566664 0.941664
vt 0.433336 0.941664
vt 0.566664 0.058336
vt 0.433336 0.058336
vn 0.0000 0.0000 -1.0000
vn 0.0491 -0.0000 -0.9988
vn 0.9988 -0.0000 -0.0491
vn 0.9808 -0.0000 -0.1951
vn 0.9239 0.0000 -0.3827
vn 0.8315 0.0000 -0.5556
vn 0.7071 0.0000 -0.7071
vn 0.5556 -0.0000 -0.8315
vn 0.3827 -0.0000 -0.9239
vn 0.1951 -0.0000 -0.9808
vn 1.0000 0.0000 0.0000
usemtl None
s 1
f 1/1/1 5/2/2 15/3/2 3/4/1
f 14/5/3 16/6/4 13/7/4 6/8/3
f 16/6/4 17/9/5 12/10/5 13/7/4
f 17/9/5 18/11/6 11/12/6 12/10/5
f 18/11/6 19/13/7 10/14/7 11/12/6
f 19/15/7 20/16/8 9/17/8 10/18/7
f 20/16/8 21/19/9 8/20/9 9/17/8
f 21/19/9 22/21/10 7/22/10 8/20/9
f 22/21/10 15/3/2 5/2/2 7/22/10
f 4/23/11 14/5/3 6/8/3 2/24/11
