# Blender v3.2.0 OBJ File: 'HexaLaby.blend'
# www.blender.org
mtllib HexaLabyInternalCornerNorm.mtl
o Corner_Cube.028
v -1.500000 -1.000000 -1.000000
v -1.000000 -1.000000 -1.500000
v -1.000000 -1.500000 -1.000000
v -1.487476 -1.000000 -1.111207
v -1.450508 -1.000000 -1.216892
v -1.390929 -1.000000 -1.311728
v -1.487476 -1.111207 -1.000000
v -1.474789 -1.110850 -1.110850
v -1.437446 -1.109079 -1.216200
v -1.380126 -1.107666 -1.306451
v -1.450508 -1.216892 -1.000000
v -1.437446 -1.216200 -1.109079
v -1.400883 -1.211297 -1.211297
v -1.351985 -1.203421 -1.291078
v -1.390929 -1.311728 -1.000000
v -1.380126 -1.306451 -1.107665
v -1.351985 -1.291078 -1.203421
v -1.318071 -1.272792 -1.272792
v -1.000000 -1.111207 -1.487476
v -1.000000 -1.216892 -1.450508
v -1.000000 -1.311728 -1.390929
v -1.111207 -1.000000 -1.487476
v -1.110850 -1.110850 -1.474789
v -1.109079 -1.216201 -1.437446
v -1.107665 -1.306451 -1.380126
v -1.216892 -1.000000 -1.450508
v -1.216200 -1.109079 -1.437446
v -1.211297 -1.211297 -1.400883
v -1.203421 -1.291078 -1.351985
v -1.311727 -1.000000 -1.390930
v -1.306451 -1.107666 -1.380126
v -1.291077 -1.203421 -1.351985
v -1.272792 -1.272792 -1.318071
v -1.111207 -1.487476 -1.000000
v -1.216892 -1.450509 -1.000000
v -1.311728 -1.390930 -1.000000
v -1.000000 -1.487476 -1.111207
v -1.110850 -1.474789 -1.110850
v -1.216200 -1.437446 -1.109079
v -1.306451 -1.380126 -1.107665
v -1.000000 -1.450509 -1.216892
v -1.109079 -1.437446 -1.216200
v -1.211297 -1.400883 -1.211297
v -1.291077 -1.351985 -1.203421
v -1.000000 -1.390930 -1.311728
v -1.107665 -1.380126 -1.306451
v -1.203421 -1.351985 -1.291078
v -1.272792 -1.318071 -1.272792
vt 0.333333 0.541667
vt 0.342601 0.541667
vt 0.342571 0.532429
vt 0.333333 0.532399
vt 0.342423 0.523650
vt 0.333333 0.523592
vt 0.342305 0.516129
vt 0.333333 0.515689
vt 0.342305 0.500000
vt 0.333333 0.500000
vt 0.351408 0.541667
vt 0.351350 0.532577
vt 0.350941 0.524059
vt 0.350285 0.517410
vt 0.350285 0.500000
vt 0.359311 0.541667
vt 0.358871 0.532695
vt 0.357590 0.524715
vt 0.356066 0.518934
vt 0.356066 0.500000
vt 0.416667 0.458333
vt 0.407399 0.458333
vt 0.407429 0.467571
vt 0.416667 0.467601
vt 0.407577 0.476350
vt 0.416667 0.476408
vt 0.407695 0.483871
vt 0.416667 0.484311
vt 0.407695 0.516129
vt 0.416667 0.515689
vt 0.398592 0.458333
vt 0.398650 0.467423
vt 0.399059 0.475941
vt 0.399715 0.482590
vt 0.399715 0.517410
vt 0.375000 0.458333
vt 0.375000 0.467305
vt 0.375000 0.475285
vt 0.375000 0.481066
vt 0.393934 0.518934
vt 0.416667 0.541667
vt 0.416667 0.532399
vt 0.407429 0.532429
vt 0.407399 0.541667
vt 0.398650 0.532577
vt 0.398592 0.541667
vt 0.391129 0.532695
vt 0.390689 0.541667
vt 0.416667 0.523592
vt 0.407577 0.523650
vt 0.399059 0.524059
vt 0.392410 0.524715
vt 0.359839 0.518934
vn 1.0000 0.0000 -0.0000
vn 0.9750 0.2224 0.0000
vn 0.9496 0.2217 0.2217
vn 0.9750 0.0000 0.2224
vn 0.8749 0.2182 0.4324
vn 0.9010 -0.0000 0.4338
vn 0.7602 0.2153 0.6129
vn 0.7819 -0.0000 0.6235
vn 0.6129 0.2153 0.7602
vn 0.6235 -0.0000 0.7819
vn 0.9010 0.4338 -0.0000
vn 0.8749 0.4324 0.2182
vn 0.8018 0.4226 0.4226
vn 0.7040 0.4068 0.5822
vn 0.5822 0.4068 0.7040
vn 0.7819 0.6235 -0.0000
vn 0.7602 0.6129 0.2153
vn 0.7040 0.5822 0.4068
vn 0.6361 0.5456 0.5456
vn 0.5456 0.5456 0.6361
vn -0.0000 0.0000 1.0000
vn 0.2224 0.0000 0.9750
vn 0.2217 0.2217 0.9496
vn 0.0000 0.2224 0.9750
vn 0.2182 0.4324 0.8749
vn -0.0000 0.4338 0.9010
vn 0.2153 0.6129 0.7602
vn -0.0000 0.6235 0.7819
vn 0.2153 0.7603 0.6129
vn -0.0000 0.7819 0.6235
vn 0.4338 -0.0000 0.9010
vn 0.4324 0.2182 0.8749
vn 0.4226 0.4226 0.8018
vn 0.4068 0.5822 0.7040
vn 0.4068 0.7040 0.5822
vn 0.5456 0.6361 0.5456
vn -0.0000 1.0000 0.0000
vn 0.0000 0.9750 0.2224
vn 0.2217 0.9496 0.2217
vn 0.2224 0.9750 0.0000
vn 0.4324 0.8749 0.2182
vn 0.4338 0.9010 -0.0000
vn 0.6129 0.7603 0.2153
vn 0.6235 0.7819 -0.0000
vn -0.0000 0.9010 0.4338
vn 0.2182 0.8749 0.4324
vn 0.4226 0.8018 0.4226
vn 0.5822 0.7040 0.4068
usemtl CornerrMat
s 1
f 1/1/1 7/2/2 8/3/3 4/4/4
f 4/4/4 8/3/3 9/5/5 5/6/6
f 5/6/6 9/5/5 10/7/7 6/8/8
f 6/8/8 10/7/7 31/9/9 30/10/10
f 7/2/2 11/11/11 12/12/12 8/3/3
f 8/3/3 12/12/12 13/13/13 9/5/5
f 9/5/5 13/13/13 14/14/14 10/7/7
f 10/7/7 14/14/14 32/15/15 31/9/9
f 11/11/11 15/16/16 16/17/17 12/12/12
f 12/12/12 16/17/17 17/18/18 13/13/13
f 13/13/13 17/18/18 18/19/19 14/14/14
f 14/14/14 18/19/19 33/20/20 32/15/15
f 2/21/21 22/22/22 23/23/23 19/24/24
f 19/24/24 23/23/23 24/25/25 20/26/26
f 20/26/26 24/25/25 25/27/27 21/28/28
f 21/28/28 25/27/27 46/29/29 45/30/30
f 22/22/22 26/31/31 27/32/32 23/23/23
f 23/23/23 27/32/32 28/33/33 24/25/25
f 24/25/25 28/33/33 29/34/34 25/27/27
f 25/27/27 29/34/34 47/35/35 46/29/29
f 26/31/31 30/36/10 31/37/9 27/32/32
f 27/32/32 31/37/9 32/38/15 28/33/33
f 28/33/33 32/38/15 33/39/20 29/34/34
f 29/34/34 33/39/20 48/40/36 47/35/35
f 3/41/37 37/42/38 38/43/39 34/44/40
f 34/44/40 38/43/39 39/45/41 35/46/42
f 35/46/42 39/45/41 40/47/43 36/48/44
f 36/48/44 40/47/43 16/17/17 15/16/16
f 37/42/38 41/49/45 42/50/46 38/43/39
f 38/43/39 42/50/46 43/51/47 39/45/41
f 39/45/41 43/51/47 44/52/48 40/47/43
f 40/47/43 44/52/48 17/18/18 16/17/17
f 41/49/45 45/30/30 46/29/29 42/50/46
f 42/50/46 46/29/29 47/35/35 43/51/47
f 43/51/47 47/35/35 48/40/36 44/52/48
f 44/52/48 48/40/36 18/19/19 17/18/18
f 18/19/19 48/53/36 33/20/20
